<?xml version="1.0" standalone="no"?>
<!DOCTYPE svg PUBLIC "-//W3C//DTD SVG 20010904//EN"
 "http://www.w3.org/TR/2001/REC-SVG-20010904/DTD/svg10.dtd">
<svg version="1.0" xmlns="http://www.w3.org/2000/svg"
 width="300.000000pt" height="300.000000pt" viewBox="0 0 300.000000 300.000000"
 preserveAspectRatio="xMidYMid meet">
<metadata>
Created by potrace 1.10, written by Peter Selinger 2001-2011
</metadata>
<g transform="translate(0.000000,300.000000) scale(0.100000,-0.100000)"
fill="#ffffff" stroke="none">
<path d="M853 2616 l-642 -371 0 -745 0 -745 177 -102 c97 -55 387 -223 644
-371 l468 -270 645 372 644 371 0 745 0 745 -641 370 c-353 204 -644 371 -647
371 -3 1 -295 -165 -648 -370z m672 330 c11 -7 36 -22 55 -33 19 -10 72 -41
118 -68 46 -28 95 -56 110 -64 15 -7 79 -44 142 -81 126 -74 439 -253 510
-292 25 -14 90 -52 145 -84 55 -32 112 -65 128 -73 23 -12 27 -21 28 -60 5
-161 4 -1412 0 -1419 -3 -5 -24 -19 -46 -31 -87 -47 -151 -84 -165 -95 -8 -7
-30 -18 -47 -26 -18 -7 -33 -16 -33 -20 0 -4 -8 -10 -17 -13 -10 -3 -40 -20
-68 -36 -27 -17 -75 -44 -105 -61 -116 -65 -211 -119 -310 -178 -41 -25 -104
-61 -140 -80 -36 -19 -72 -40 -80 -47 -8 -7 -40 -26 -70 -42 -30 -16 -84 -46
-120 -66 l-66 -36 -84 50 c-47 28 -105 62 -130 76 -25 13 -58 33 -75 43 -29
17 -146 84 -420 242 -71 41 -175 101 -230 134 -119 70 -148 86 -243 139 l-72
40 0 50 c-1 28 -1 358 -1 734 l-1 684 54 30 c29 16 58 33 63 37 12 10 349 201
420 239 28 14 52 29 55 32 3 4 36 24 74 45 110 63 139 79 176 102 19 12 41 25
49 28 7 4 52 30 100 57 47 28 105 61 128 73 23 12 54 30 70 40 73 49 72 48 98
30z"/>
<path d="M1415 2815 c-33 -20 -72 -41 -87 -47 -16 -7 -28 -16 -28 -20 0 -4 -6
-8 -14 -8 -8 0 -21 -6 -28 -13 -7 -7 -24 -18 -38 -25 -14 -7 -45 -25 -70 -40
-25 -16 -81 -48 -125 -72 -44 -23 -91 -51 -105 -60 -14 -9 -29 -19 -35 -21 -8
-3 -90 -50 -155 -89 -52 -31 -239 -137 -261 -148 -14 -8 -39 -24 -55 -38 l-29
-24 22 -19 c18 -15 159 -100 251 -151 15 -8 50 -29 77 -46 28 -17 75 -45 105
-61 30 -16 84 -47 120 -68 36 -21 90 -51 120 -68 30 -16 67 -38 82 -49 14 -10
33 -18 41 -18 33 0 37 25 37 246 1 181 -2 220 -15 233 -11 12 -37 15 -120 13
-58 -1 -105 1 -105 4 0 8 28 42 106 131 38 42 107 120 154 173 47 52 87 97 90
100 3 3 36 40 74 83 60 68 96 94 96 69 0 -4 10 -18 23 -32 40 -44 201 -226
232 -262 17 -19 74 -83 128 -142 53 -59 97 -111 97 -115 0 -5 -50 -8 -112 -9
-80 -1 -113 -5 -119 -14 -17 -26 -13 -455 4 -473 14 -15 38 -4 172 75 44 26
121 70 170 99 50 28 97 56 105 61 8 6 22 13 30 17 8 4 17 9 20 12 3 4 23 15
45 26 22 11 42 23 45 26 7 8 171 99 179 99 3 0 19 10 35 23 33 27 30 57 -7 75
-12 6 -40 23 -62 37 -22 13 -49 29 -60 35 -29 14 -112 62 -284 163 -83 48
-154 87 -160 87 -5 0 -11 3 -13 8 -4 9 -147 92 -159 92 -5 0 -9 5 -9 11 0 5
-4 8 -9 5 -5 -3 -14 1 -21 9 -7 8 -19 15 -26 15 -8 0 -14 5 -14 10 0 6 -4 10
-10 10 -5 0 -33 14 -62 31 -111 66 -157 89 -180 89 -12 0 -50 -16 -83 -35z
m271 -85 c104 -61 347 -201 541 -313 194 -111 353 -204 353 -207 0 -3 -180
-109 -400 -237 l-400 -231 0 229 0 228 140 3 140 3 -258 290 c-143 160 -269
299 -280 309 -22 19 -22 19 -44 0 -11 -10 -137 -149 -280 -309 l-258 -290 140
-3 140 -3 0 -228 0 -229 -394 228 c-217 125 -399 229 -407 232 -7 2 219 138
502 301 424 245 566 328 575 336 0 1 86 -49 190 -109z"/>
<path d="M347 1458 c2 -342 6 -625 10 -629 5 -4 240 -141 523 -304 283 -163
519 -301 525 -306 5 -5 13 -9 17 -9 4 0 8 164 8 364 0 263 3 365 11 368 15 5
13 298 -1 312 -6 6 -10 53 -10 106 l0 95 -197 114 c-288 167 -422 244 -665
385 -120 69 -219 126 -220 126 -2 0 -2 -280 -1 -622z m85 552 c26 -16 50 -30
52 -30 3 0 71 -38 152 -85 81 -47 149 -85 152 -85 3 0 13 -6 21 -14 9 -8 41
-28 71 -44 49 -26 242 -137 280 -162 8 -5 33 -18 55 -30 46 -23 93 -51 150
-89 l40 -27 1 -72 c1 -40 -2 -72 -7 -72 -5 0 -94 49 -197 109 -454 263 -662
381 -670 381 -29 0 -32 -34 -33 -326 -1 -561 -3 -522 30 -553 15 -14 46 -35
67 -46 21 -11 56 -30 77 -43 21 -13 55 -32 75 -43 20 -12 108 -62 195 -112
259 -151 271 -157 297 -154 l25 2 3 162 2 162 -27 21 c-16 11 -73 46 -128 78
l-100 58 -3 77 -3 77 53 -31 c29 -18 78 -45 108 -62 30 -16 96 -54 146 -83
l92 -53 0 -336 c0 -184 -4 -335 -8 -335 -5 0 -37 16 -72 36 -72 42 -80 46
-243 141 -66 39 -125 72 -130 74 -15 6 -209 122 -215 129 -3 3 -12 6 -20 8 -8
2 -22 9 -30 15 -16 13 -39 26 -98 58 -20 10 -80 45 -132 77 l-95 58 -2 597
c-1 408 2 597 9 597 6 0 33 -13 60 -30z m126 -258 c15 -10 217 -128 450 -262
l422 -243 0 -153 c0 -85 -2 -154 -4 -154 -2 0 -103 58 -225 129 l-221 129 0
-106 0 -107 133 -76 132 -77 3 -157 3 -156 -43 25 c-24 14 -186 108 -360 208
l-318 183 0 402 c0 221 -3 408 -6 417 -8 21 2 20 34 -2z"/>
<path d="M2600 2052 c-25 -16 -267 -156 -537 -312 l-493 -284 0 -623 c0 -343
2 -623 3 -623 2 0 103 57 223 128 121 70 363 210 539 311 l320 184 0 99 c0 76
3 101 15 108 12 8 14 66 12 417 -2 309 -5 409 -15 415 -8 5 -12 39 -12 108 0
55 -2 100 -5 100 -3 0 -25 -13 -50 -28z m37 -81 l2 -79 -37 -20 c-20 -10 -136
-76 -257 -146 -121 -70 -238 -138 -260 -151 -203 -116 -322 -188 -337 -202
-18 -18 -20 -93 -18 -730 0 -154 5 -159 101 -104 35 20 89 50 119 66 30 17 57
32 60 35 3 3 19 12 35 21 37 20 305 176 403 235 40 24 74 44 77 44 2 0 27 13
54 30 28 16 53 25 56 20 3 -5 5 -37 4 -71 -2 -45 -7 -66 -20 -78 -30 -28 -48
-41 -53 -41 -3 0 -92 -50 -198 -111 -106 -62 -238 -138 -293 -169 -55 -32
-120 -70 -145 -84 -25 -15 -53 -29 -62 -33 -10 -3 -18 -9 -18 -14 0 -5 -4 -9
-10 -9 -5 0 -58 -29 -119 -65 -60 -36 -113 -65 -119 -65 -6 0 -10 206 -10 600
l0 600 85 47 c46 27 101 57 121 68 20 11 55 32 77 46 22 14 70 42 107 62 36
20 81 47 100 59 18 13 56 34 83 48 28 14 52 27 55 30 6 6 23 16 159 92 58 32
110 63 115 68 6 4 40 24 76 44 36 19 65 36 65 36 0 0 1 -36 2 -79z m23 -513
l0 -413 -413 -238 c-226 -130 -431 -249 -455 -263 l-42 -25 2 417 3 418 445
257 c245 142 448 258 453 258 4 1 7 -185 7 -411z"/>
</g>
</svg>
